<svg xmlns="http://www.w3.org/2000/svg" viewBox="0 0 193.42 35.33"><defs><style>.cls-1{fill:#fff;}.cls-2{fill:none;stroke:#fff;stroke-width:0.75px;}</style></defs><title>JMM-Black</title><g id="Layer_2" data-name="Layer 2"><path class="cls-1" d="M27.51,41.56a1.62,1.62,0,0,0-1.53-.9A1.5,1.5,0,0,0,24.38,42c0,.75.73,1.15,1.33,1.37l.68.27c1.36.53,2.38,1.28,2.38,2.88a3,3,0,0,1-6,.31L24,46.58a1.78,1.78,0,0,0,1.85,1.82,1.8,1.8,0,0,0,1.77-1.87c0-1-.83-1.47-1.66-1.81l-.66-.28C24.17,44,23.18,43.35,23.18,42A2.61,2.61,0,0,1,26,39.54,2.72,2.72,0,0,1,28.46,41Z" transform="translate(-6.47 -17.38)"/><path class="cls-1" d="M31.09,38.29v5.88h0a2,2,0,0,1,1.79-1c1.67,0,2.1,1.13,2.1,2.58v3.54H33.87v-3.4c0-1-.14-1.7-1.31-1.7-1.47,0-1.47,1.29-1.47,2.37v2.73H30v-11Z" transform="translate(-6.47 -17.38)"/><path class="cls-1" d="M42.16,49.31H41v-.92h0a2.45,2.45,0,0,1-2,1.13,2.94,2.94,0,0,1-2.84-3.22,2.91,2.91,0,0,1,2.8-3.11A2.44,2.44,0,0,1,41,44.36h0v-1h1.14Zm-1.08-3a1.92,1.92,0,1,0-1.93,2.16A2,2,0,0,0,41.08,46.34Z" transform="translate(-6.47 -17.38)"/><path class="cls-1" d="M44.86,44.34h0a1.71,1.71,0,0,1,1.62-1.15,1.77,1.77,0,0,1,.94.3l-.52,1a1,1,0,0,0-.7-.24c-1.23,0-1.38,1.14-1.38,2.1v2.92H43.72V43.37h1.14Z" transform="translate(-6.47 -17.38)"/><path class="cls-1" d="M49.71,40.66a.79.79,0,0,1-1.58,0,.79.79,0,1,1,1.58,0Zm-.22,8.65H48.35V43.37h1.14Z" transform="translate(-6.47 -17.38)"/><path class="cls-1" d="M52.46,44.17h0a2,2,0,0,1,1.79-1c1.67,0,2.11,1.13,2.11,2.58v3.54H55.24v-3.4c0-1-.14-1.7-1.3-1.7-1.48,0-1.48,1.29-1.48,2.37v2.73H51.32V43.37h1.14Z" transform="translate(-6.47 -17.38)"/><path class="cls-1" d="M63.52,49.2c0,2-.59,3.52-2.9,3.52A2.66,2.66,0,0,1,57.75,50H58.9a1.61,1.61,0,0,0,1.77,1.68c1.41,0,1.71-1,1.71-2.18V48.39h0a2.46,2.46,0,0,1-2,1.13,2.92,2.92,0,0,1-2.84-3.22,2.91,2.91,0,0,1,2.79-3.11,2.4,2.4,0,0,1,2.07,1.2h0v-1h1.14Zm-1.08-2.86a1.92,1.92,0,1,0-1.93,2.16A2,2,0,0,0,62.44,46.34Z" transform="translate(-6.47 -17.38)"/><path class="cls-1" d="M75.77,41.57a3.89,3.89,0,0,0-2.53-.94,3.9,3.9,0,1,0,2.53,6.8v1.41a5.12,5.12,0,0,1-2.52.68,5,5,0,0,1-5-4.94,5,5,0,0,1,5.09-5,4.61,4.61,0,0,1,2.42.65Z" transform="translate(-6.47 -17.38)"/><path class="cls-1" d="M78.2,38.29v5.88h0a2,2,0,0,1,1.79-1c1.67,0,2.1,1.13,2.1,2.58v3.54H81v-3.4c0-1-.14-1.7-1.31-1.7-1.47,0-1.47,1.29-1.47,2.37v2.73H77.06v-11Z" transform="translate(-6.47 -17.38)"/><path class="cls-1" d="M84.92,44.34h0a1.72,1.72,0,0,1,1.63-1.15,1.77,1.77,0,0,1,.94.3l-.52,1a1,1,0,0,0-.7-.24c-1.23,0-1.38,1.14-1.38,2.1v2.92H83.77V43.37h1.15Z" transform="translate(-6.47 -17.38)"/><path class="cls-1" d="M89.76,40.66a.77.77,0,0,1-.78.77.78.78,0,0,1-.79-.77.79.79,0,0,1,.79-.8A.79.79,0,0,1,89.76,40.66Zm-.21,8.65H88.41V43.37h1.14Z" transform="translate(-6.47 -17.38)"/><path class="cls-1" d="M93.76,44.73a.88.88,0,0,0-.76-.52.61.61,0,0,0-.62.58c0,.52.68.75,1.38,1.07s1.37.75,1.37,1.69a2,2,0,0,1-2,2A2.2,2.2,0,0,1,91,48.18l1-.44a1.18,1.18,0,0,0,1.08.76.85.85,0,0,0,.9-.84.7.7,0,0,0-.42-.64l-1.11-.6c-.67-.36-1.15-.69-1.15-1.5a1.74,1.74,0,0,1,1.75-1.73,1.77,1.77,0,0,1,1.63,1.05Z" transform="translate(-6.47 -17.38)"/><path class="cls-1" d="M97.56,49.31H96.41V44.44h-.62V43.37h.62V41.1h1.15v2.27h1.11v1.07H97.56Z" transform="translate(-6.47 -17.38)"/><path class="cls-1" d="M108.52,44.77v.95h-6.34v-.95Z" transform="translate(-6.47 -17.38)"/><path class="cls-1" d="M114.3,48.22h2.9v1.09h-4.1V39.74h1.2Z" transform="translate(-6.47 -17.38)"/><path class="cls-1" d="M123.68,46.36a3.18,3.18,0,1,1-3.18-3.17A3.13,3.13,0,0,1,123.68,46.36Zm-5.21,0a2,2,0,1,0,2-2.07A2.06,2.06,0,0,0,118.47,46.36Z" transform="translate(-6.47 -17.38)"/><path class="cls-1" d="M126.75,47.08l1.71-3.71h1.28l-3,6.15-3-6.15h1.29Z" transform="translate(-6.47 -17.38)"/><path class="cls-1" d="M132,40.66a.79.79,0,0,1-1.58,0,.79.79,0,1,1,1.58,0Zm-.22,8.65h-1.14V43.37h1.14Z" transform="translate(-6.47 -17.38)"/><path class="cls-1" d="M134.73,44.17h0a2,2,0,0,1,1.79-1c1.67,0,2.1,1.13,2.1,2.58v3.54h-1.14v-3.4c0-1-.14-1.7-1.31-1.7-1.47,0-1.47,1.29-1.47,2.37v2.73h-1.14V43.37h1.14Z" transform="translate(-6.47 -17.38)"/><path class="cls-1" d="M145.79,49.2c0,2-.59,3.52-2.9,3.52A2.66,2.66,0,0,1,140,50h1.15a1.61,1.61,0,0,0,1.77,1.68c1.41,0,1.7-1,1.7-2.18V48.39h0a2.46,2.46,0,0,1-2,1.13,2.92,2.92,0,0,1-2.84-3.22,2.91,2.91,0,0,1,2.79-3.11,2.4,2.4,0,0,1,2.07,1.2h0v-1h1.15Zm-1.08-2.86a1.92,1.92,0,1,0-1.93,2.16A2,2,0,0,0,144.71,46.34Z" transform="translate(-6.47 -17.38)"/><path class="cls-1" d="M152.26,49.31h-1.2V39.74h1.38c2.94,0,3.85,1,3.85,2.77,0,2-1.53,2.79-3.35,2.79h-.68Zm0-5.07h.38c1.22,0,2.54-.23,2.54-1.76s-1.42-1.67-2.6-1.67h-.32Z" transform="translate(-6.47 -17.38)"/><path class="cls-1" d="M157.91,46.53a1.86,1.86,0,0,0,1.79,2,1.93,1.93,0,0,0,1.77-1.15l1,.54a3.1,3.1,0,0,1-2.76,1.63,2.89,2.89,0,0,1-2.92-3.13c0-1.82,1-3.2,2.9-3.2s2.78,1.4,2.78,3.17v.17Zm3.38-.86a1.6,1.6,0,0,0-1.63-1.49A1.71,1.71,0,0,0,158,45.67Z" transform="translate(-6.47 -17.38)"/><path class="cls-1" d="M169.23,46.36a3.18,3.18,0,1,1-3.18-3.17A3.13,3.13,0,0,1,169.23,46.36Zm-5.21,0a2,2,0,1,0,2-2.07A2.06,2.06,0,0,0,164,46.36Z" transform="translate(-6.47 -17.38)"/><path class="cls-1" d="M171.32,44.36h0a2.44,2.44,0,0,1,2.07-1.17,2.91,2.91,0,0,1,2.79,3.11,2.93,2.93,0,0,1-2.85,3.22,2.45,2.45,0,0,1-2-1.13h0v4.33h-1.14V43.37h1.14Zm3.75,2a1.92,1.92,0,1,0-1.93,2.16A2,2,0,0,0,175.07,46.34Z" transform="translate(-6.47 -17.38)"/><path class="cls-1" d="M178.52,49.31h-1.15v-11h1.15Z" transform="translate(-6.47 -17.38)"/><path class="cls-1" d="M180.83,46.53a1.86,1.86,0,0,0,1.79,2,1.93,1.93,0,0,0,1.77-1.15l1,.54a3.1,3.1,0,0,1-2.76,1.63,2.89,2.89,0,0,1-2.92-3.13c0-1.82,1-3.2,2.9-3.2s2.78,1.4,2.78,3.17v.17Zm3.39-.86a1.61,1.61,0,0,0-1.64-1.49,1.71,1.71,0,0,0-1.69,1.49Z" transform="translate(-6.47 -17.38)"/><line class="cls-2" x1="12.24" y1="17.42" x2="183.24" y2="17.42"/><path class="cls-1" d="M10.09,25.5c0,2.43-.05,3.36-.51,4.41a5.7,5.7,0,0,1-2.27,2.28,7.37,7.37,0,0,1-.63.39.54.54,0,0,1-.11,0,.1.1,0,0,1-.1-.09c0-.09,0-.16.19-.24a3.58,3.58,0,0,0,.55-.41c1-1,1.47-1.77,1.47-5.62V21.92c0-2.32,0-2.74,0-3.22S8.52,18,8,17.88a4.22,4.22,0,0,0-.52,0,.15.15,0,0,1-.12-.12c0-.09.07-.13.24-.13.7,0,1.7,0,1.79,0s1,0,1.51,0c.18,0,.25,0,.25.13a.15.15,0,0,1-.12.12,1.51,1.51,0,0,0-.39,0c-.42.08-.51.29-.54.82s0,.9,0,3.22Z" transform="translate(-6.47 -17.38)"/><path class="cls-1" d="M18.54,28.52c1.2,0,3.62-.64,3.62-4.38,0-3.1-1.89-4.73-4-4.73s-3.85,1.4-3.85,4.21C14.31,26.63,16.12,28.52,18.54,28.52Zm-.31-9.6c3,0,5.3,1.84,5.3,4.85a5.19,5.19,0,0,1-5.37,5.28A5,5,0,0,1,12.93,24,5.12,5.12,0,0,1,18.23,18.92Z" transform="translate(-6.47 -17.38)"/><path class="cls-1" d="M28.18,25.52a2.28,2.28,0,0,0-.29-1.32c-.11-.2-1.92-3.07-2.37-3.76a3.54,3.54,0,0,0-.88-.94,1.35,1.35,0,0,0-.57-.18.13.13,0,0,1-.13-.12c0-.06,0-.09.16-.09l1.33,0c.09,0,.64,0,1.15,0,.16,0,.19,0,.19.09s-.1.09-.22.13a.23.23,0,0,0-.16.22,1.08,1.08,0,0,0,.18.5l2.43,4c.27-.55,1.95-3.32,2.19-3.74a1.35,1.35,0,0,0,.23-.67.31.31,0,0,0-.21-.34c-.12,0-.2-.09-.2-.15s.08-.07.21-.07c.35,0,.82,0,.93,0l1.31,0c.09,0,.16,0,.16.07a.15.15,0,0,1-.16.14,1.3,1.3,0,0,0-.63.17,2.38,2.38,0,0,0-.67.63c-.44.52-2.32,3.56-2.6,4.11a2.56,2.56,0,0,0-.16,1.29v1.11c0,.22,0,.76,0,1.3,0,.38.12.62.52.68a5.2,5.2,0,0,0,.61.06.1.1,0,0,1,.1.11c0,.06-.07.1-.21.1-.74,0-1.61,0-1.69,0s-.91,0-1.31,0c-.15,0-.21,0-.21-.1a.1.1,0,0,1,.11-.11,1.76,1.76,0,0,0,.39-.06c.28-.06.37-.3.4-.68,0-.54,0-1.08,0-1.3Z" transform="translate(-6.47 -17.38)"/><path class="cls-1" d="M35.68,27.67a4.86,4.86,0,0,1-1.63-3.84,5.08,5.08,0,0,1,1.51-3.52,5.48,5.48,0,0,1,4.07-1.39,14.19,14.19,0,0,1,1.95.15,7.81,7.81,0,0,0,1.37.2c.13,0,.16.06.16.14s0,.26-.06.73,0,1.14,0,1.32-.07.28-.15.28-.11-.09-.11-.28a1.67,1.67,0,0,0-.56-1.29,4.38,4.38,0,0,0-2.63-.71,4.12,4.12,0,0,0-3,.89,4.23,4.23,0,0,0-1.2,3.38,4.69,4.69,0,0,0,4.82,4.68,2.79,2.79,0,0,0,2.2-.61,2.38,2.38,0,0,0,.52-1.08c0-.13.05-.18.14-.18s.12.09.12.18a13,13,0,0,1-.32,1.66c-.08.25-.11.29-.34.38a7.64,7.64,0,0,1-2.41.29A6.32,6.32,0,0,1,35.68,27.67Z" transform="translate(-6.47 -17.38)"/><path class="cls-1" d="M46.34,22.85c0-2,0-2.38,0-2.79s-.11-.65-.55-.71a3.44,3.44,0,0,0-.46,0,.13.13,0,0,1-.1-.11c0-.07.06-.1.21-.1.61,0,1.47,0,1.55,0h3.2c.25,0,.5-.07.6-.08A.6.6,0,0,1,51,19s.06.06.06.12a5.62,5.62,0,0,0-.11.61c0,.12,0,.7-.08.85s-.06.14-.12.14-.1-.06-.1-.17a1.42,1.42,0,0,0-.08-.45c-.09-.22-.23-.31-1-.4-.23,0-1.78-.05-1.93-.05s-.08.05-.08.14V23.3c0,.09,0,.14.08.14s1.93,0,2.24,0a1.05,1.05,0,0,0,.65-.18c.09-.09.15-.17.2-.17s.07,0,.07.11-.07.28-.1.71c0,.26-.06.75-.06.84s0,.24-.13.24-.09,0-.09-.12a1.19,1.19,0,0,0-.06-.43c0-.18-.16-.33-.68-.39s-1.8-.06-2-.06a.08.08,0,0,0-.09.09v1.08c0,.44,0,1.94,0,2.2,0,.87.28,1,1.6,1a4.37,4.37,0,0,0,1.34-.14,1,1,0,0,0,.61-.9c0-.15.06-.19.13-.19s.1.1.1.19a10.12,10.12,0,0,1-.19,1.25c-.09.34-.22.34-.74.34-1,0-1.78,0-2.33-.05s-.91,0-1.11,0h-.58l-.77,0c-.14,0-.22,0-.22-.1a.1.1,0,0,1,.11-.11,2.9,2.9,0,0,0,.41-.06c.26,0,.29-.3.35-.68a25.27,25.27,0,0,0,.08-2.8Z" transform="translate(-6.47 -17.38)"/><path class="cls-1" d="M72.14,27c0,.53.15,1.33.79,1.54a3.26,3.26,0,0,0,1,.14.11.11,0,0,1,.12.11c0,.09-.14.14-.31.14-.36,0-2.08,0-2.64-.08-.37,0-.44-.09-.44-.17a.14.14,0,0,1,.11-.12c.08,0,.1-.24.07-.52l-.74-7.56h0l-3.72,7.63c-.32.65-.41.79-.54.79s-.23-.14-.53-.69c-.41-.74-1.43-2.65-1.81-3.46s-1.71-3.46-2-4.08h-.07l-.6,6.75c0,.23,0,.51,0,.76a.43.43,0,0,0,.37.42,2.37,2.37,0,0,0,.59.08s.13.06.13.11-.11.14-.29.14c-.58,0-1.32-.05-1.44-.05s-.87.05-1.3.05c-.15,0-.26,0-.26-.14s.07-.11.16-.11a2.32,2.32,0,0,0,.45-.05c.51-.09.53-.63.6-1.19L61,17.65c0-.16.08-.27.17-.27a.37.37,0,0,1,.32.23l4.67,9.28,4.5-9.26c.07-.14.14-.25.24-.25s.2.13.23.41Z" transform="translate(-6.47 -17.38)"/><path class="cls-1" d="M130.43,27c0,.53.16,1.34.79,1.55a3.26,3.26,0,0,0,1,.14.11.11,0,0,1,.12.11c0,.08-.14.14-.31.14-.35,0-2.08,0-2.64-.09-.37,0-.43-.09-.43-.16a.12.12,0,0,1,.1-.12c.09,0,.1-.25.07-.53l-.74-7.55h0l-3.73,7.62c-.31.65-.4.79-.54.79s-.23-.14-.53-.68c-.4-.74-1.42-2.66-1.81-3.46s-1.7-3.46-2-4.08h-.07l-.59,6.75c0,.22,0,.51,0,.75a.41.41,0,0,0,.37.42,2.52,2.52,0,0,0,.6.09.13.13,0,0,1,.12.11c0,.1-.11.14-.28.14-.58,0-1.32-.06-1.44-.06s-.88.06-1.3.06c-.16,0-.27,0-.27-.14s.07-.11.16-.11a3.85,3.85,0,0,0,.46-.05c.51-.09.52-.63.59-1.2l1.13-9.75c0-.15.09-.26.17-.26a.35.35,0,0,1,.32.23l4.67,9.27,4.5-9.25c.07-.14.14-.25.25-.25s.19.12.23.4Z" transform="translate(-6.47 -17.38)"/><path class="cls-1" d="M76.78,22.85c0-2,0-2.38,0-2.79s-.11-.65-.55-.71a3.44,3.44,0,0,0-.46,0,.13.13,0,0,1-.1-.11c0-.07.06-.1.21-.1.61,0,1.48,0,1.55,0h3.2c.25,0,.5-.07.6-.08a.76.76,0,0,1,.18-.06c.05,0,.07.06.07.12a5.62,5.62,0,0,0-.11.61c0,.12,0,.7-.08.85s-.06.14-.12.14-.1-.06-.1-.17A1.42,1.42,0,0,0,81,20.1c-.09-.22-.23-.31-1-.4-.23,0-1.78-.05-1.93-.05s-.08.05-.08.14V23.3c0,.09,0,.14.08.14s1.93,0,2.24,0,.52-.05.65-.18.15-.17.2-.17.07,0,.07.11-.07.28-.1.71c0,.26-.06.75-.06.84s0,.24-.13.24-.09,0-.09-.12a1.19,1.19,0,0,0-.06-.43c0-.18-.16-.33-.68-.39s-1.8-.06-2-.06-.1,0-.1.09v1.08c0,.44,0,1.94,0,2.2,0,.87.28,1,1.6,1a4.37,4.37,0,0,0,1.34-.14,1,1,0,0,0,.61-.9c0-.15.06-.19.13-.19s.09.1.09.19a9.82,9.82,0,0,1-.18,1.25c-.09.34-.22.34-.74.34-1,0-1.78,0-2.33-.05s-.91,0-1.11,0h-.58l-.77,0c-.14,0-.22,0-.22-.1a.1.1,0,0,1,.11-.11,2.9,2.9,0,0,0,.41-.06c.26,0,.29-.3.35-.68a25.27,25.27,0,0,0,.08-2.8Z" transform="translate(-6.47 -17.38)"/><path class="cls-1" d="M87.21,25.52a2.28,2.28,0,0,0-.29-1.32c-.11-.2-1.91-3.07-2.37-3.76a3.54,3.54,0,0,0-.88-.94,1.35,1.35,0,0,0-.57-.18A.13.13,0,0,1,83,19.2c0-.06,0-.09.17-.09l1.32,0c.09,0,.64,0,1.15,0,.15,0,.18,0,.18.09s-.08.09-.21.13a.23.23,0,0,0-.16.22,1.08,1.08,0,0,0,.18.5l2.43,4c.28-.55,2-3.32,2.19-3.74a1.35,1.35,0,0,0,.23-.67.31.31,0,0,0-.21-.34c-.12,0-.2-.09-.2-.15s.08-.07.21-.07c.35,0,.82,0,.93,0l1.31,0c.09,0,.16,0,.16.07a.15.15,0,0,1-.16.14,1.33,1.33,0,0,0-.63.17,2.52,2.52,0,0,0-.67.63c-.44.52-2.32,3.56-2.6,4.11a2.56,2.56,0,0,0-.16,1.29v1.11c0,.22,0,.76,0,1.3,0,.38.12.62.52.68a5.2,5.2,0,0,0,.61.06.1.1,0,0,1,.1.11c0,.06-.07.1-.21.1-.74,0-1.61,0-1.69,0s-.91,0-1.3,0c-.16,0-.22,0-.22-.1a.1.1,0,0,1,.11-.11,1.76,1.76,0,0,0,.39-.06c.28-.06.37-.3.4-.68,0-.54,0-1.08,0-1.3Z" transform="translate(-6.47 -17.38)"/><path class="cls-1" d="M94.91,22.85c0-2,0-2.38,0-2.79s-.11-.65-.55-.71a3.44,3.44,0,0,0-.46,0,.14.14,0,0,1-.11-.11c0-.07.07-.1.22-.1.61,0,1.47,0,1.55,0h3.19c.26,0,.51-.07.61-.08a.64.64,0,0,1,.18-.06s.06.06.06.12-.07.24-.1.61c0,.12,0,.7-.08.85s-.06.14-.12.14-.11-.06-.11-.17a1.37,1.37,0,0,0-.07-.45c-.09-.22-.23-.31-1-.4-.23,0-1.78-.05-1.93-.05s-.08.05-.08.14V23.3c0,.09,0,.14.08.14s1.93,0,2.23,0a1.08,1.08,0,0,0,.66-.18c.09-.09.15-.17.19-.17s.08,0,.08.11a5.81,5.81,0,0,0-.11.71c0,.26-.06.75-.06.84s0,.24-.12.24-.09,0-.09-.12a1.19,1.19,0,0,0-.06-.43c0-.18-.17-.33-.69-.39-.36-.05-1.79-.06-2-.06a.08.08,0,0,0-.09.09v1.08c0,.44,0,1.94,0,2.2,0,.87.28,1,1.6,1a4.37,4.37,0,0,0,1.34-.14,1,1,0,0,0,.6-.9c0-.15.07-.19.14-.19s.09.1.09.19a9.82,9.82,0,0,1-.18,1.25c-.09.34-.23.34-.74.34-1,0-1.78,0-2.33-.05s-.91,0-1.11,0H95c-.26,0-.56,0-.78,0s-.21,0-.21-.1a.1.1,0,0,1,.11-.11,2.9,2.9,0,0,0,.41-.06c.26,0,.29-.3.35-.68a25.27,25.27,0,0,0,.08-2.8Z" transform="translate(-6.47 -17.38)"/><path class="cls-1" d="M104,23.94a.2.2,0,0,0,.09.17,4.48,4.48,0,0,0,1.48.2,1.75,1.75,0,0,0,1-.23,2.31,2.31,0,0,0,.81-2,2.23,2.23,0,0,0-2.31-2.54,5.78,5.78,0,0,0-1,.08.16.16,0,0,0-.11.15Zm-1.15-1.09c0-2,0-2.38,0-2.79s-.11-.65-.55-.71a3.29,3.29,0,0,0-.45,0,.13.13,0,0,1-.11-.11c0-.07.06-.1.21-.1.61,0,1.51,0,1.58,0l1.67,0a4.36,4.36,0,0,1,2.5.56,2.28,2.28,0,0,1,.93,1.76,3.77,3.77,0,0,1-1.65,2.95c1.1,1.37,2,2.54,2.8,3.35a2.48,2.48,0,0,0,1.49.9,2.84,2.84,0,0,0,.47,0,.12.12,0,0,1,.13.11c0,.07-.08.1-.32.1h-.84a2.75,2.75,0,0,1-1.43-.25,6.85,6.85,0,0,1-1.82-1.91c-.57-.7-1.16-1.53-1.45-1.88a.21.21,0,0,0-.18-.08l-1.71,0c-.06,0-.09,0-.09.11v.3c0,1.25,0,2.25.06,2.79,0,.38.13.62.54.68a4.9,4.9,0,0,0,.59.06.1.1,0,0,1,.11.11c0,.06-.06.1-.22.1-.73,0-1.58,0-1.64,0s-.91,0-1.32,0c-.14,0-.21,0-.21-.1a.1.1,0,0,1,.1-.11,1.93,1.93,0,0,0,.41-.06c.26-.06.29-.3.35-.68a25.27,25.27,0,0,0,.08-2.8Z" transform="translate(-6.47 -17.38)"/><path class="cls-1" d="M135.42,25.11c0,1.23,0,2.24.06,2.76s.09.62.49.68a5.78,5.78,0,0,0,.62.06.1.1,0,0,1,.11.1c0,.06-.06.11-.22.11-.76,0-1.64-.05-1.7-.05s-.93.05-1.34.05c-.14,0-.22,0-.22-.11a.1.1,0,0,1,.11-.1,2.13,2.13,0,0,0,.42-.06c.26-.06.31-.3.35-.68s.08-1.53.08-2.76V22.86c0-2,0-2.34,0-2.74s-.14-.63-.43-.69a2.73,2.73,0,0,0-.42-.05.12.12,0,0,1-.11-.1c0-.08.06-.11.22-.11l1.37,0,1.36,0c.16,0,.22,0,.22.11a.13.13,0,0,1-.11.1,1.55,1.55,0,0,0-.34,0c-.37.08-.45.26-.48.71s0,.76,0,2.74Z" transform="translate(-6.47 -17.38)"/><path class="cls-1" d="M139.83,27.08c0,1.05.16,1.36.53,1.45a3.45,3.45,0,0,0,.68.08.1.1,0,0,1,.11.1c0,.08-.1.11-.25.11-.77,0-1.31-.05-1.44-.05s-.69.05-1.31.05c-.14,0-.22,0-.22-.11a.1.1,0,0,1,.11-.1,2.26,2.26,0,0,0,.56-.08c.34-.09.38-.43.38-1.59v-7.3c0-.51.08-.65.19-.65s.39.26.53.39,2.19,2.25,4.29,4.35c1.35,1.35,2.8,2.87,3.22,3.29l-.14-6.39c0-.83-.09-1.11-.51-1.19a5.38,5.38,0,0,0-.67-.06c-.09,0-.1-.07-.1-.12s.1-.09.26-.09c.62,0,1.27,0,1.42,0s.6,0,1.16,0c.14,0,.25,0,.25.09a.16.16,0,0,1-.16.12,1.53,1.53,0,0,0-.32,0c-.45.09-.48.35-.48,1.11l0,7.47c0,.84,0,.92-.11.92s-.28-.11-1-.78c-.14-.12-2.1-2-3.54-3.45-1.57-1.61-3.1-3.17-3.52-3.62Z" transform="translate(-6.47 -17.38)"/><path class="cls-1" d="M152.44,25.11c0,1.23,0,2.24.06,2.76s.1.62.5.68a5.56,5.56,0,0,0,.62.06.1.1,0,0,1,.1.1c0,.06-.06.11-.21.11-.76,0-1.64-.05-1.7-.05s-.93.05-1.35.05c-.14,0-.21,0-.21-.11a.1.1,0,0,1,.1-.1,1.93,1.93,0,0,0,.42-.06c.26-.06.31-.3.36-.68s.07-1.53.07-2.76V22.86c0-2,0-2.34,0-2.74s-.14-.63-.43-.69a2.48,2.48,0,0,0-.42-.05.12.12,0,0,1-.11-.1c0-.08.07-.11.22-.11l1.38,0,1.36,0c.15,0,.21,0,.21.11a.13.13,0,0,1-.1.1,1.51,1.51,0,0,0-.34,0c-.38.08-.45.26-.48.71s0,.76,0,2.74Z" transform="translate(-6.47 -17.38)"/><path class="cls-1" d="M155.45,28.64c-.18-.09-.2-.14-.2-.48a12.88,12.88,0,0,1,.08-1.35c0-.14,0-.21.11-.21s.12,0,.12.15a1.71,1.71,0,0,0,.05.46c.21.93,1.23,1.26,2.15,1.26,1.34,0,2-.73,2-1.69s-.51-1.35-1.72-2.22l-.62-.45c-1.47-1.07-2-1.85-2-2.73,0-1.5,1.23-2.4,3-2.4a6.53,6.53,0,0,1,1.41.15,1.8,1.8,0,0,0,.48.06c.1,0,.13,0,.13.09s-.06.48-.06,1.35c0,.19,0,.28-.11.28s-.1-.06-.12-.16a2,2,0,0,0-.2-.63c-.09-.15-.54-.63-1.76-.63-1,0-1.81.48-1.81,1.38s.42,1.27,1.76,2.16l.39.25c1.65,1.1,2.22,2,2.22,3.08a2.46,2.46,0,0,1-1.26,2.17,4.32,4.32,0,0,1-2.17.45A5.26,5.26,0,0,1,155.45,28.64Z" transform="translate(-6.47 -17.38)"/><path class="cls-1" d="M167,25.11c0,1.23,0,2.24.06,2.76s.11.62.53.68a5.34,5.34,0,0,0,.62.06.1.1,0,0,1,.11.1c0,.06-.07.11-.22.11-.74,0-1.61-.05-1.68-.05s-1,.05-1.41.05c-.16,0-.22,0-.22-.11s0-.09.11-.09a1.84,1.84,0,0,0,.4-.06c.28-.06.36-.31.4-.69s.07-1.53.07-2.76V19.76l-2,0c-.85,0-1.17.1-1.37.4a2.17,2.17,0,0,0-.22.41c0,.1-.08.12-.14.12a.1.1,0,0,1-.09-.11c0-.13.28-1.27.29-1.38s.1-.24.14-.24a3.88,3.88,0,0,0,.6.15,10.2,10.2,0,0,0,1.07.06h5.13a7.09,7.09,0,0,0,1-.06l.38-.06c.06,0,.06.08.06.15,0,.39,0,1.31,0,1.46s-.06.16-.13.16-.09,0-.1-.22l0-.14c0-.39-.34-.67-1.64-.7l-1.7,0Z" transform="translate(-6.47 -17.38)"/><path class="cls-1" d="M172.88,22.86c0-2,0-2.34,0-2.74s-.11-.65-.56-.71l-.46,0a.13.13,0,0,1-.11-.1c0-.08.06-.11.22-.11.62,0,1.53,0,1.6,0l1.71,0a4.56,4.56,0,0,1,2.53.56,2.21,2.21,0,0,1,.94,1.74,3.7,3.7,0,0,1-1.67,2.91c1.12,1.35,2.06,2.5,2.85,3.3a2.44,2.44,0,0,0,1.51.88,2.36,2.36,0,0,0,.48.05.12.12,0,0,1,.13.1c0,.08-.08.11-.33.11h-.85a2.8,2.8,0,0,1-1.45-.26,6.87,6.87,0,0,1-1.86-1.87c-.57-.69-1.17-1.52-1.47-1.86a.21.21,0,0,0-.18-.08l-1.73,0c-.06,0-.1,0-.1.11v.3a27.37,27.37,0,0,0,.07,2.74c0,.38.12.62.54.68a5,5,0,0,0,.6.06.1.1,0,0,1,.11.1c0,.06-.06.11-.22.11-.74,0-1.61-.05-1.67-.05s-.92.05-1.34.05c-.14,0-.22,0-.22-.11a.1.1,0,0,1,.11-.1,2.13,2.13,0,0,0,.42-.06c.26-.06.29-.3.35-.68a24.36,24.36,0,0,0,.08-2.76Zm1.17,1.08a.21.21,0,0,0,.1.17,4.89,4.89,0,0,0,1.5.19,1.82,1.82,0,0,0,1-.22,2.26,2.26,0,0,0,.82-1.95,2.24,2.24,0,0,0-2.35-2.51,6.08,6.08,0,0,0-1,.08.16.16,0,0,0-.11.15Z" transform="translate(-6.47 -17.38)"/><path class="cls-1" d="M183.88,25.11c0,1.23,0,2.24.06,2.76s.1.62.5.68a5.56,5.56,0,0,0,.62.06.1.1,0,0,1,.1.1c0,.06-.06.11-.21.11-.76,0-1.64-.05-1.7-.05s-.93.05-1.35.05c-.14,0-.21,0-.21-.11a.1.1,0,0,1,.1-.1,1.93,1.93,0,0,0,.42-.06c.26-.06.31-.3.36-.68s.07-1.53.07-2.76V22.86c0-2,0-2.34,0-2.74s-.14-.63-.43-.69a2.48,2.48,0,0,0-.42-.05.11.11,0,0,1-.1-.1c0-.08.06-.11.21-.11l1.38,0,1.36,0c.15,0,.21,0,.21.11a.13.13,0,0,1-.1.1,1.51,1.51,0,0,0-.34,0c-.38.08-.45.26-.48.71s0,.76,0,2.74Z" transform="translate(-6.47 -17.38)"/><path class="cls-1" d="M187.73,22.86c0-2,0-2.34,0-2.74s-.11-.65-.56-.71l-.46,0a.13.13,0,0,1-.11-.1c0-.08.06-.11.22-.11.61,0,1.49,0,1.57,0s2.94,0,3.25,0,.51-.06.62-.07a.64.64,0,0,1,.18-.06c.05,0,.06.06.06.12s-.07.24-.1.6c0,.12-.05.69-.08.84s-.06.13-.13.13-.1-.06-.1-.16a1.42,1.42,0,0,0-.08-.45c-.09-.21-.23-.3-1-.39-.23,0-1.8-.05-2-.05s-.08.05-.08.14v3.46c0,.09,0,.14.08.14s2,0,2.27,0a1.1,1.1,0,0,0,.67-.18c.09-.09.15-.17.2-.17s.08,0,.08.11a5.85,5.85,0,0,0-.11.7c0,.26-.06.74-.06.83s0,.24-.13.24-.09-.05-.09-.12a1.12,1.12,0,0,0-.06-.42c-.05-.18-.17-.33-.7-.39-.37-.05-1.82-.06-2.05-.06s-.1,0-.1.09v1.06c0,.44,0,1.92,0,2.18,0,.85.28,1,1.63,1a4.53,4.53,0,0,0,1.36-.14,1,1,0,0,0,.62-.88c0-.15.06-.2.14-.2s.09.11.09.2a9.89,9.89,0,0,1-.19,1.23c-.09.33-.23.33-.76.33-1,0-1.8,0-2.36-.05s-.93,0-1.13,0l-.59,0-.78,0c-.14,0-.22,0-.22-.11a.1.1,0,0,1,.11-.1c.12,0,.29-.05.41-.06.27-.05.3-.3.36-.68a24.36,24.36,0,0,0,.08-2.76Z" transform="translate(-6.47 -17.38)"/><path class="cls-1" d="M194.48,28.64c-.19-.09-.2-.14-.2-.48a12.88,12.88,0,0,1,.08-1.35c0-.14,0-.21.1-.21s.13,0,.13.15a2.13,2.13,0,0,0,0,.46c.22.93,1.24,1.26,2.15,1.26,1.35,0,2-.73,2-1.69s-.51-1.35-1.71-2.22l-.62-.45c-1.47-1.07-2-1.85-2-2.73,0-1.5,1.22-2.4,3-2.4a6.36,6.36,0,0,1,1.4.15,1.8,1.8,0,0,0,.48.06c.11,0,.14,0,.14.09s-.06.48-.06,1.35c0,.19,0,.28-.11.28s-.11-.06-.12-.16a2.72,2.72,0,0,0-.2-.63c-.1-.15-.55-.63-1.77-.63-1,0-1.8.48-1.8,1.38s.41,1.27,1.76,2.16l.38.25c1.66,1.1,2.23,2,2.23,3.08a2.45,2.45,0,0,1-1.27,2.17,4.26,4.26,0,0,1-2.16.45A5.22,5.22,0,0,1,194.48,28.64Z" transform="translate(-6.47 -17.38)"/></g></svg>